<?xml version="1.0" standalone="no"?>
<!DOCTYPE svg PUBLIC "-//W3C//DTD SVG 20010904//EN"
 "http://www.w3.org/TR/2001/REC-SVG-20010904/DTD/svg10.dtd">
<svg version="1.0" xmlns="http://www.w3.org/2000/svg"
 width="500.000000pt" height="500.000000pt" viewBox="0 0 500.000000 500.000000"
 preserveAspectRatio="xMidYMid meet">
<metadata>
Created by potrace 1.11, written by Peter Selinger 2001-2013
</metadata>
<g transform="translate(0.000000,500.000000) scale(0.100000,-0.100000)"
fill="#000000" stroke="none">
<path d="M2275 4603 c-292 -37 -524 -110 -805 -253 -153 -78 -236 -133 -390
-257 -156 -125 -204 -176 -191 -202 6 -10 67 -90 137 -177 l127 -159 -9 -66
c-10 -73 -3 -131 21 -183 16 -33 16 -34 -30 -132 -81 -171 -127 -319 -146
-462 -16 -126 -13 -400 5 -504 33 -182 121 -401 226 -562 l51 -79 -24 -26
c-163 -180 -328 -366 -353 -398 -7 -10 -14 -24 -14 -30 0 -27 197 -206 335
-305 131 -93 396 -237 551 -299 158 -62 404 -120 579 -137 139 -12 431 -6 555
12 335 50 628 159 894 333 128 83 185 130 360 294 l70 67 -71 72 -72 73 -64
-62 c-325 -314 -711 -506 -1152 -575 -175 -28 -506 -18 -690 19 -236 48 -521
165 -732 301 -112 72 -270 191 -276 207 -3 10 39 69 88 123 5 6 41 45 79 88
37 42 72 76 77 76 4 0 36 -24 71 -54 242 -205 558 -327 918 -353 63 -4 87 -10
94 -22 18 -30 91 -92 126 -107 43 -19 140 -21 198 -5 28 8 61 29 92 59 82 79
101 201 50 308 -57 116 -232 174 -347 116 -49 -25 -112 -87 -124 -122 l-10
-26 -82 8 c-298 30 -647 190 -873 401 -110 102 -218 277 -274 446 -46 137 -61
231 -65 406 -5 241 32 412 136 631 l34 71 62 6 c106 10 181 65 224 161 78 176
-67 372 -266 361 l-60 -3 -79 101 -79 101 49 44 c141 128 457 302 684 376 240
78 388 101 665 101 238 0 325 -10 530 -61 296 -75 549 -208 838 -443 65 -53
131 -104 147 -114 l27 -17 62 57 61 58 -20 30 c-37 56 -239 227 -389 330 -89
60 -287 163 -423 219 -91 38 -257 84 -413 115 -163 33 -534 46 -700 24z m-845
-1108 c54 -28 65 -76 25 -119 -32 -34 -77 -35 -110 -1 -33 33 -32 70 4 106 34
33 41 35 81 14z m1344 -2327 c40 -35 43 -78 11 -116 -34 -40 -75 -43 -110 -7
-74 73 22 191 99 123z"/>
<path d="M2550 4170 c-78 -14 -153 -80 -185 -163 -21 -56 -17 -165 8 -213 41
-79 132 -135 227 -139 72 -3 122 16 193 70 31 25 64 45 73 45 54 0 278 -101
383 -172 75 -51 213 -159 208 -164 -57 -61 -251 -254 -256 -254 -3 0 -33 19
-66 41 -417 280 -934 235 -1264 -110 -101 -106 -153 -195 -206 -353 -34 -102
-34 -104 -34 -283 0 -170 2 -185 28 -265 41 -122 65 -172 122 -255 145 -210
378 -356 623 -390 84 -12 278 -7 351 9 116 25 261 90 378 170 37 25 71 46 76
46 4 0 36 -29 70 -65 49 -51 61 -69 55 -83 -5 -9 -9 -53 -9 -97 1 -91 14 -123
73 -181 53 -52 87 -66 162 -69 89 -4 151 16 201 66 109 109 109 267 0 376 -51
50 -112 73 -200 73 l-66 0 -141 141 -142 141 -63 -60 c-142 -133 -271 -212
-409 -249 -91 -25 -302 -24 -384 1 -188 56 -359 193 -445 356 -56 105 -73 175
-76 301 -3 144 7 212 45 303 88 209 254 357 480 427 97 30 291 33 385 5 137
-41 316 -144 419 -242 l48 -46 46 44 c26 23 151 147 279 273 l233 230 -57 54
c-284 263 -447 367 -710 453 -127 41 -133 44 -154 83 -64 112 -176 166 -299
145z m119 -206 c42 -54 10 -124 -57 -124 -43 0 -55 7 -71 37 -17 34 -13 62 14
88 34 35 86 34 114 -1z m968 -2360 c21 -21 24 -32 20 -62 -7 -41 -46 -82 -78
-82 -32 0 -79 53 -79 90 0 71 86 105 137 54z"/>
</g>
</svg>
